<svg width="24" height="28" viewBox="0 0 24 28" fill="none" xmlns="http://www.w3.org/2000/svg">
<path fill-rule="evenodd" clip-rule="evenodd" d="M0.725437 8.4432C2.72351 2.21806 9.42674 -1.34828 15.6985 0.478145C21.9689 2.30418 25.4324 8.83126 23.4343 15.0564C20.6755 23.6519 10.8563 27.4141 10.8563 27.4141C8.41062 28.7104 5.29393 27.7705 3.96586 25.4338C3.96586 25.4338 -2.03344 17.0387 0.725437 8.4432ZM15.2053 6.00578H10.7695C10.4277 6.00578 10.0322 6.25585 9.90032 6.56431L6.60488 14.2709C6.34472 14.8792 6.70003 15.3834 7.40426 15.3834H9.71724L8.27452 20.391C7.90913 21.6593 8.40261 21.9388 9.38436 20.9889L17.0657 13.5571C17.5546 13.0841 17.3835 12.7041 16.6879 12.7041H12.8521L15.89 7.08198C16.2112 6.48751 15.9046 6.00578 15.2053 6.00578Z" fill="white"/>
</svg>
