<svg width="18" height="17" viewBox="0 0 18 17" fill="none" xmlns="http://www.w3.org/2000/svg">
<path fill-rule="evenodd" clip-rule="evenodd" d="M2.19065 8.33259C2.19065 4.57185 5.23933 1.52317 9.00007 1.52317C10.9461 1.52317 12.7004 2.33848 13.9423 3.64825C14.2273 3.94883 14.702 3.96146 15.0026 3.67646C15.3031 3.39146 15.3158 2.91675 15.0308 2.61617C13.5174 1.02012 11.3746 0.023167 9.00007 0.023167C4.4109 0.023167 0.690647 3.74342 0.690647 8.33259C0.690647 12.9218 4.4109 16.642 9.00007 16.642C11.3746 16.642 13.5174 15.6451 15.0308 14.049C15.3158 13.7484 15.3031 13.2737 15.0026 12.9887C14.702 12.7037 14.2273 12.7164 13.9423 13.0169C12.7004 14.3267 10.9461 15.142 9.00007 15.142C5.23933 15.142 2.19065 12.0933 2.19065 8.33259ZM5.56259 8.33299C5.56259 6.43604 7.10399 4.8956 9.00871 4.8956C9.99411 4.8956 10.8816 5.30714 11.5104 5.96895C11.7958 6.26923 12.2705 6.28136 12.5708 5.99605C12.871 5.71074 12.8832 5.23602 12.5979 4.93574C11.6973 3.98792 10.4215 3.3956 9.00871 3.3956C6.27851 3.3956 4.06259 5.60467 4.06259 8.33299C4.06259 11.0613 6.27851 13.2704 9.00871 13.2704C10.4215 13.2704 11.6973 12.6781 12.5979 11.7302C12.8832 11.43 12.871 10.9552 12.5708 10.6699C12.2705 10.3846 11.7958 10.3968 11.5104 10.697C10.8816 11.3588 9.99411 11.7704 9.00871 11.7704C7.10399 11.7704 5.56259 10.2299 5.56259 8.33299ZM17.3056 8.31933C17.3056 8.74675 16.9591 9.09324 16.5317 9.09324C16.1043 9.09324 15.7578 8.74675 15.7578 8.31933C15.7578 7.89192 16.1043 7.54542 16.5317 7.54542C16.9591 7.54542 17.3056 7.89192 17.3056 8.31933ZM13.1874 9.09324C13.6148 9.09324 13.9613 8.74675 13.9613 8.31933C13.9613 7.89192 13.6148 7.54542 13.1874 7.54542C12.76 7.54542 12.4135 7.89192 12.4135 8.31933C12.4135 8.74675 12.76 9.09324 13.1874 9.09324Z" fill="white"/>
</svg>
